<svg width="21" height="21" viewBox="0 0 21 21" fill="none" xmlns="http://www.w3.org/2000/svg">
<path d="M16.9721 15.6307L11.4669 10.1255L16.9721 4.61928C17.1517 4.43973 17.25 4.20128 17.25 3.94715C17.25 3.69445 17.1512 3.45648 16.9726 3.27835C16.8849 3.18994 16.7806 3.1198 16.6656 3.07202C16.5507 3.02424 16.4274 2.99976 16.3028 3C16.0482 3 15.8098 3.0988 15.6307 3.27788L10.125 8.78313L4.61928 3.27788C4.53141 3.18952 4.42689 3.11946 4.31176 3.07176C4.19664 3.02407 4.07319 2.99968 3.94858 3C3.6954 3 3.45743 3.0988 3.27788 3.27788C3.18953 3.36556 3.11947 3.46991 3.07177 3.58488C3.02406 3.69985 2.99967 3.82315 3 3.94763C3 4.20128 3.09833 4.43973 3.27788 4.61928L8.78408 10.1255L3.27788 15.6302C3.18946 15.7182 3.11937 15.8228 3.07167 15.938C3.02398 16.0532 2.99961 16.1767 3 16.3014C3 16.5546 3.0988 16.793 3.27788 16.9721C3.45743 17.1512 3.6954 17.25 3.94858 17.25C4.20175 17.25 4.4402 17.1512 4.61928 16.9721L10.1255 11.4669L15.6307 16.9721C15.8098 17.1512 16.0487 17.25 16.3019 17.25C16.5555 17.25 16.793 17.1512 16.9716 16.9726C17.1493 16.7945 17.2491 16.5532 17.2491 16.3017C17.2491 16.0501 17.1493 15.8088 16.9716 15.6307H16.9721Z" fill="#00A3FF"/>
</svg>
