<svg width="25" height="28" viewBox="0 0 25 28" fill="none" xmlns="http://www.w3.org/2000/svg">
<path d="M3.4028 8.23489H5.2118H8.14284H11.6234L15.1956 8.23489H18.3557H20.5998C20.9661 8.23489 21.2638 8.31886 21.4928 8.48678C21.7218 8.6547 21.8783 8.86843 21.9622 9.12794C22.0462 9.38746 22.05 9.6737 21.9737 9.98665C21.8973 10.2996 21.7294 10.6087 21.4699 10.914C20.9051 11.5247 20.3097 12.1658 19.6838 12.8375C19.0579 13.5092 18.4167 14.1886 17.7603 14.8755L15.8368 16.9364C15.1804 17.6234 14.5545 18.2874 13.9591 18.9286C13.6843 19.2187 13.3561 19.4324 12.9745 19.5698C12.5928 19.7072 12.1997 19.772 11.7952 19.7644C11.3906 19.7568 10.9937 19.669 10.6045 19.5011C10.2152 19.3332 9.87551 19.0965 9.58546 18.7912C8.53211 17.6921 7.43297 16.5013 6.28804 15.219C5.1431 13.9367 3.94473 12.5628 2.69293 11.0972C2.40288 10.7461 2.20443 10.3988 2.09757 10.0553C1.99071 9.71186 1.97162 9.40655 2.04032 9.13939C2.10902 8.87224 2.26167 8.6547 2.4983 8.48678C2.73492 8.31886 3.03642 8.23489 3.4028 8.23489Z" fill="#00FF47"/>
</svg>
