<svg width="27" height="27" viewBox="0 0 27 27" fill="none" xmlns="http://www.w3.org/2000/svg">
<path fill-rule="evenodd" clip-rule="evenodd" d="M2.59091 2.45455C2.55474 2.45455 2.52006 2.46891 2.49449 2.49449C2.46891 2.52006 2.45455 2.55474 2.45455 2.59091V9.40909C2.45455 9.44526 2.46891 9.47994 2.49449 9.50552C2.52006 9.53109 2.55474 9.54545 2.59091 9.54545H9.54545V2.59091C9.54545 2.55474 9.53109 2.52006 9.50552 2.49449C9.47994 2.46891 9.44526 2.45455 9.40909 2.45455H2.59091ZM0.75886 0.75886C1.24475 0.27297 1.90376 0 2.59091 0H9.40909C10.0962 0 10.7553 0.27297 11.2411 0.75886C11.727 1.24475 12 1.90376 12 2.59091V12H2.59091C1.90376 12 1.24475 11.727 0.75886 11.2411C0.27297 10.7553 0 10.0962 0 9.40909V2.59091C0 1.90376 0.27297 1.24475 0.75886 0.75886Z" fill="black" fill-opacity="0.55"/>
<path fill-rule="evenodd" clip-rule="evenodd" d="M17.5909 2.45455C17.5547 2.45455 17.5201 2.46891 17.4945 2.49449C17.4689 2.52006 17.4545 2.55474 17.4545 2.59091V9.54545H24.4091C24.4453 9.54545 24.4799 9.53109 24.5055 9.50552C24.5311 9.47994 24.5455 9.44526 24.5455 9.40909V2.59091C24.5455 2.55474 24.5311 2.52006 24.5055 2.49449C24.4799 2.46891 24.4453 2.45455 24.4091 2.45455H17.5909ZM15.7589 0.75886C16.2448 0.27297 16.9038 0 17.5909 0H24.4091C25.0962 0 25.7553 0.272969 26.2411 0.75886C26.727 1.24475 27 1.90376 27 2.59091V9.40909C27 10.0962 26.727 10.7552 26.2411 11.2411C25.7553 11.727 25.0962 12 24.4091 12H15V2.59091C15 1.90376 15.273 1.24475 15.7589 0.75886Z" fill="black" fill-opacity="0.55"/>
<path fill-rule="evenodd" clip-rule="evenodd" d="M15 15H24.4091C25.0962 15 25.7553 15.273 26.2411 15.7589C26.727 16.2448 27 16.9038 27 17.5909V24.4091C27 25.0962 26.727 25.7552 26.2411 26.2411C25.7552 26.727 25.0962 27 24.4091 27H17.5909C16.9038 27 16.2448 26.727 15.7589 26.2411C15.273 25.7553 15 25.0962 15 24.4091V15ZM17.4545 17.4545V24.4091C17.4545 24.4453 17.4689 24.4799 17.4945 24.5055C17.5201 24.5311 17.5547 24.5455 17.5909 24.5455H24.4091C24.4453 24.5455 24.4799 24.5311 24.5055 24.5055C24.5311 24.4799 24.5455 24.4453 24.5455 24.4091V17.5909C24.5455 17.5547 24.5311 17.5201 24.5055 17.4945C24.4799 17.4689 24.4453 17.4545 24.4091 17.4545H17.4545Z" fill="black" fill-opacity="0.55"/>
<path fill-rule="evenodd" clip-rule="evenodd" d="M2.59091 17.4545C2.55474 17.4545 2.52006 17.4689 2.49449 17.4945C2.46891 17.5201 2.45455 17.5547 2.45455 17.5909V24.4091C2.45455 24.4453 2.46891 24.4799 2.49449 24.5055C2.52006 24.5311 2.55474 24.5455 2.59091 24.5455H9.40909C9.44526 24.5455 9.47994 24.5311 9.50552 24.5055C9.53109 24.4799 9.54545 24.4453 9.54545 24.4091V17.4545H2.59091ZM0.75886 15.7589C1.24475 15.273 1.90376 15 2.59091 15H12V24.4091C12 25.0962 11.727 25.7553 11.2411 26.2411C10.7552 26.727 10.0962 27 9.40909 27H2.59091C1.90376 27 1.24475 26.727 0.75886 26.2411C0.272969 25.7553 0 25.0962 0 24.4091V17.5909C0 16.9038 0.27297 16.2448 0.75886 15.7589Z" fill="black" fill-opacity="0.55"/>
</svg>
