<svg width="24" height="22" viewBox="0 0 24 22" fill="none" xmlns="http://www.w3.org/2000/svg">
<path d="M3.758 0.793945C4.24333 0.793945 4.655 0.958612 4.993 1.28795C5.331 1.61728 5.5 2.02461 5.5 2.50995V3.83595C5.5 4.32128 5.331 4.73295 4.993 5.07095C4.655 5.40895 4.24333 5.57795 3.758 5.57795H2.38C1.912 5.57795 1.509 5.40895 1.171 5.07095C0.833001 4.73295 0.664001 4.32128 0.664001 3.83595V2.50995C0.664001 2.02461 0.833001 1.61728 1.171 1.28795C1.509 0.958612 1.912 0.793945 2.38 0.793945H3.758ZM21.594 0.793945C22.062 0.793945 22.465 0.958612 22.803 1.28795C23.141 1.61728 23.31 2.02461 23.31 2.50995V3.83595C23.31 4.32128 23.141 4.73295 22.803 5.07095C22.465 5.40895 22.062 5.57795 21.594 5.57795H10.492C10.0067 5.57795 9.595 5.40895 9.257 5.07095C8.919 4.73295 8.75 4.32128 8.75 3.83595V2.50995C8.75 2.02461 8.919 1.61728 9.257 1.28795C9.595 0.958612 10.0067 0.793945 10.492 0.793945H21.594ZM3.758 8.87995C4.24333 8.87995 4.655 9.04895 4.993 9.38695C5.331 9.72495 5.5 10.1366 5.5 10.6219V11.9479C5.5 12.4159 5.331 12.8189 4.993 13.1569C4.655 13.4949 4.24333 13.6639 3.758 13.6639H2.38C1.912 13.6639 1.509 13.4949 1.171 13.1569C0.833001 12.8189 0.664001 12.4159 0.664001 11.9479V10.6219C0.664001 10.1366 0.833001 9.72495 1.171 9.38695C1.509 9.04895 1.912 8.87995 2.38 8.87995H3.758ZM21.594 8.87995C22.062 8.87995 22.465 9.04895 22.803 9.38695C23.141 9.72495 23.31 10.1366 23.31 10.6219V11.9479C23.31 12.4159 23.141 12.8189 22.803 13.1569C22.465 13.4949 22.062 13.6639 21.594 13.6639H10.492C10.0067 13.6639 9.595 13.4949 9.257 13.1569C8.919 12.8189 8.75 12.4159 8.75 11.9479V10.6219C8.75 10.1366 8.919 9.72495 9.257 9.38695C9.595 9.04895 10.0067 8.87995 10.492 8.87995H21.594ZM3.758 16.9919C4.24333 16.9919 4.655 17.1609 4.993 17.4989C5.331 17.8369 5.5 18.2399 5.5 18.7079V20.0339C5.5 20.5193 5.331 20.9309 4.993 21.2689C4.655 21.6069 4.24333 21.7759 3.758 21.7759H2.38C1.912 21.7759 1.509 21.6069 1.171 21.2689C0.833001 20.9309 0.664001 20.5193 0.664001 20.0339V18.7079C0.664001 18.2399 0.833001 17.8369 1.171 17.4989C1.509 17.1609 1.912 16.9919 2.38 16.9919H3.758ZM21.594 16.9919C22.062 16.9919 22.465 17.1609 22.803 17.4989C23.141 17.8369 23.31 18.2399 23.31 18.7079V20.0339C23.31 20.5193 23.141 20.9309 22.803 21.2689C22.465 21.6069 22.062 21.7759 21.594 21.7759H10.492C10.0067 21.7759 9.595 21.6069 9.257 21.2689C8.919 20.9309 8.75 20.5193 8.75 20.0339V18.7079C8.75 18.2399 8.919 17.8369 9.257 17.4989C9.595 17.1609 10.0067 16.9919 10.492 16.9919H21.594Z" fill="#949494"/>
</svg>
