<svg width="25" height="28" viewBox="0 0 25 28" fill="none" xmlns="http://www.w3.org/2000/svg">
<path d="M20.6254 19.765H18.8164H15.8854H12.4048H8.83255H5.67252H3.42845C3.06207 19.765 2.76438 19.6811 2.53539 19.5132C2.30641 19.3452 2.14993 19.1315 2.06597 18.872C1.98201 18.6125 1.97819 18.3262 2.05452 18.0133C2.13085 17.7003 2.29877 17.3912 2.55829 17.0859C3.12313 16.4753 3.7185 15.8341 4.3444 15.1624C4.97029 14.4907 5.61146 13.8114 6.26789 13.1244L8.19138 11.0635C8.84781 10.3766 9.47371 9.7125 10.0691 9.07133C10.3439 8.78128 10.6721 8.56756 11.0537 8.43017C11.4354 8.29277 11.8285 8.22789 12.233 8.23553C12.6376 8.24316 13.0345 8.33094 13.4237 8.49886C13.813 8.66679 14.1527 8.90341 14.4427 9.20872C15.4961 10.3079 16.5952 11.4986 17.7402 12.7809C18.8851 14.0633 20.0835 15.4372 21.3353 16.9027C21.6253 17.2538 21.8238 17.6011 21.9306 17.9446C22.0375 18.2881 22.0566 18.5934 21.9879 18.8605C21.9192 19.1277 21.7665 19.3452 21.5299 19.5132C21.2933 19.6811 20.9918 19.765 20.6254 19.765Z" fill="#FF2E00"/>
</svg>
